<mxfile host="65bd71144e">
    <diagram id="ISHKuVQvdr66fHMPUpzL" name="Page-1">
        <mxGraphModel dx="1044" dy="790" grid="1" gridSize="10" guides="1" tooltips="1" connect="1" arrows="1" fold="1" page="1" pageScale="1" pageWidth="1600" pageHeight="900" math="0" shadow="0">
            <root>
                <mxCell id="0"/>
                <mxCell id="1" parent="0"/>
                <mxCell id="3" value="" style="strokeWidth=2;outlineConnect=0;dashed=0;align=center;fontSize=8;shape=mxgraph.eip.message_translator;fillColor=#c0f5a9;verticalLabelPosition=bottom;verticalAlign=top;" vertex="1" parent="1">
                    <mxGeometry x="474" y="380" width="150" height="90" as="geometry"/>
                </mxCell>
                <mxCell id="4" value="" style="edgeStyle=orthogonalEdgeStyle;rounded=0;exitX=0;exitY=0.5;endArrow=none;dashed=0;html=1;strokeColor=#808080;strokeWidth=2;" edge="1" source="6" target="5" parent="1">
                    <mxGeometry relative="1" as="geometry"/>
                </mxCell>
                <mxCell id="5" value="" style="strokeWidth=2;dashed=0;align=center;fontSize=8;shape=ellipse;fillColor=#808080;strokeColor=none;" vertex="1" parent="1">
                    <mxGeometry x="331" y="382" width="12" height="12" as="geometry"/>
                </mxCell>
                <mxCell id="6" value="E" style="strokeWidth=2;dashed=0;align=center;fontSize=8;shape=rect;fillColor=#83BEFF;fontStyle=1;" vertex="1" parent="1">
                    <mxGeometry x="355" y="406" width="12" height="12" as="geometry"/>
                </mxCell>
                <mxCell id="7" value="" style="edgeStyle=orthogonalEdgeStyle;rounded=0;exitX=0;exitY=0.5;endArrow=none;dashed=0;html=1;strokeColor=#808080;strokeWidth=2;" edge="1" source="9" target="8" parent="1">
                    <mxGeometry relative="1" as="geometry"/>
                </mxCell>
                <mxCell id="8" value="" style="strokeWidth=2;dashed=0;align=center;fontSize=8;shape=ellipse;fillColor=#808080;strokeColor=none;" vertex="1" parent="1">
                    <mxGeometry x="331" y="382" width="12" height="12" as="geometry"/>
                </mxCell>
                <mxCell id="13" style="edgeStyle=none;html=1;" edge="1" parent="1">
                    <mxGeometry relative="1" as="geometry">
                        <mxPoint x="374" y="425" as="sourcePoint"/>
                        <mxPoint x="464" y="425" as="targetPoint"/>
                    </mxGeometry>
                </mxCell>
                <mxCell id="9" value="C" style="strokeWidth=2;dashed=0;align=center;fontSize=8;shape=rect;fillColor=#FF8080;fontStyle=1;" vertex="1" parent="1">
                    <mxGeometry x="355" y="432" width="12" height="12" as="geometry"/>
                </mxCell>
                <mxCell id="10" value="" style="edgeStyle=orthogonalEdgeStyle;rounded=0;exitX=0;exitY=0.5;endArrow=none;dashed=0;html=1;strokeColor=#808080;strokeWidth=2;" edge="1" source="12" target="11" parent="1">
                    <mxGeometry relative="1" as="geometry"/>
                </mxCell>
                <mxCell id="11" value="" style="strokeWidth=2;dashed=0;align=center;fontSize=8;shape=ellipse;fillColor=#808080;strokeColor=none;" vertex="1" parent="1">
                    <mxGeometry x="331" y="381" width="12" height="12" as="geometry"/>
                </mxCell>
                <mxCell id="12" value="D" style="strokeWidth=2;dashed=0;align=center;fontSize=8;shape=rect;fillColor=#C7A0FF;fontStyle=1;" vertex="1" parent="1">
                    <mxGeometry x="355" y="459" width="12" height="12" as="geometry"/>
                </mxCell>
                <mxCell id="15" value="" style="edgeStyle=orthogonalEdgeStyle;rounded=0;exitX=0;exitY=0.5;endArrow=none;dashed=0;html=1;strokeColor=#808080;strokeWidth=2;" edge="1" parent="1" source="17" target="16">
                    <mxGeometry relative="1" as="geometry"/>
                </mxCell>
                <mxCell id="16" value="" style="strokeWidth=2;dashed=0;align=center;fontSize=8;shape=ellipse;fillColor=#808080;strokeColor=none;" vertex="1" parent="1">
                    <mxGeometry x="725" y="381" width="12" height="12" as="geometry"/>
                </mxCell>
                <mxCell id="17" value="E" style="strokeWidth=2;dashed=0;align=center;fontSize=8;shape=rect;fillColor=#83BEFF;fontStyle=1;" vertex="1" parent="1">
                    <mxGeometry x="749" y="432" width="12" height="12" as="geometry"/>
                </mxCell>
                <mxCell id="18" value="" style="edgeStyle=orthogonalEdgeStyle;rounded=0;exitX=0;exitY=0.5;endArrow=none;dashed=0;html=1;strokeColor=#808080;strokeWidth=2;" edge="1" parent="1" source="20" target="19">
                    <mxGeometry relative="1" as="geometry"/>
                </mxCell>
                <mxCell id="19" value="" style="strokeWidth=2;dashed=0;align=center;fontSize=8;shape=ellipse;fillColor=#808080;strokeColor=none;" vertex="1" parent="1">
                    <mxGeometry x="725" y="381" width="12" height="12" as="geometry"/>
                </mxCell>
                <mxCell id="20" value="C" style="strokeWidth=2;dashed=0;align=center;fontSize=8;shape=rect;fillColor=#FF8080;fontStyle=1;" vertex="1" parent="1">
                    <mxGeometry x="749" y="459" width="12" height="12" as="geometry"/>
                </mxCell>
                <mxCell id="21" value="" style="edgeStyle=orthogonalEdgeStyle;rounded=0;exitX=0;exitY=0.5;endArrow=none;dashed=0;html=1;strokeColor=#808080;strokeWidth=2;" edge="1" parent="1" source="23" target="22">
                    <mxGeometry relative="1" as="geometry"/>
                </mxCell>
                <mxCell id="22" value="" style="strokeWidth=2;dashed=0;align=center;fontSize=8;shape=ellipse;fillColor=#808080;strokeColor=none;" vertex="1" parent="1">
                    <mxGeometry x="725" y="380" width="12" height="12" as="geometry"/>
                </mxCell>
                <mxCell id="23" value="D" style="strokeWidth=2;dashed=0;align=center;fontSize=8;shape=rect;fillColor=#C7A0FF;fontStyle=1;" vertex="1" parent="1">
                    <mxGeometry x="749" y="405" width="12" height="12" as="geometry"/>
                </mxCell>
                <mxCell id="24" style="edgeStyle=none;html=1;" edge="1" parent="1">
                    <mxGeometry relative="1" as="geometry">
                        <mxPoint x="632" y="425" as="sourcePoint"/>
                        <mxPoint x="722" y="425" as="targetPoint"/>
                    </mxGeometry>
                </mxCell>
                <mxCell id="25" value="" style="edgeStyle=orthogonalEdgeStyle;rounded=0;exitX=0;exitY=0.5;endArrow=none;dashed=0;html=1;strokeColor=#808080;strokeWidth=2;" edge="1" source="29" target="28" parent="1">
                    <mxGeometry relative="1" as="geometry"/>
                </mxCell>
                <mxCell id="26" value="" style="edgeStyle=orthogonalEdgeStyle;rounded=0;exitX=0;exitY=0.5;endArrow=none;dashed=0;html=1;strokeColor=#808080;strokeWidth=2;" edge="1" source="31" target="30" parent="1">
                    <mxGeometry relative="1" as="geometry"/>
                </mxCell>
                <mxCell id="27" value="" style="endArrow=block;html=1;endFill=1;strokeWidth=2;strokeColor=#FF9238" edge="1" parent="1">
                    <mxGeometry relative="1" as="geometry">
                        <mxPoint x="535" y="555" as="sourcePoint"/>
                        <mxPoint x="507" y="555" as="targetPoint"/>
                    </mxGeometry>
                </mxCell>
                <mxCell id="28" value="" style="strokeWidth=2;dashed=0;align=center;fontSize=8;shape=ellipse;fillColor=#808080;strokeColor=none;" vertex="1" parent="1">
                    <mxGeometry x="490" y="549" width="12" height="12" as="geometry"/>
                </mxCell>
                <mxCell id="29" value="A" style="strokeWidth=2;dashed=0;align=center;fontSize=8;shape=rect;fillColor=#FF9238;strokeColor=#000000;fontStyle=1;fontColor=#ffffff;" vertex="1" parent="1">
                    <mxGeometry x="506" y="567" width="12" height="12" as="geometry"/>
                </mxCell>
                <mxCell id="30" value="" style="strokeWidth=2;dashed=0;align=center;fontSize=8;shape=ellipse;fillColor=#808080;strokeColor=none;" vertex="1" parent="1">
                    <mxGeometry x="540" y="549" width="12" height="12" as="geometry"/>
                </mxCell>
                <mxCell id="31" value="B" style="strokeWidth=2;dashed=0;align=center;fontSize=8;shape=rect;fillColor=#FF9238;strokeColor=#000000;fontStyle=1;fontColor=#ffffff;" vertex="1" parent="1">
                    <mxGeometry x="556" y="567" width="12" height="12" as="geometry"/>
                </mxCell>
                <mxCell id="32" value="" style="strokeWidth=3;outlineConnect=0;dashed=0;align=center;fontSize=8;shape=mxgraph.eip.retAddr;html=1;verticalLabelPosition=bottom;fillColor=#FFE040;verticalAlign=top;" vertex="1" parent="1">
                    <mxGeometry x="360" y="640" width="78" height="48" as="geometry"/>
                </mxCell>
            </root>
        </mxGraphModel>
    </diagram>
</mxfile>